<svg width="9" height="16" viewBox="0 0 9 16" fill="none" xmlns="http://www.w3.org/2000/svg">
<path fill-rule="evenodd" clip-rule="evenodd" d="M7.93663 0.21934C8.07708 0.359965 8.15597 0.550589 8.15597 0.74934C8.15597 0.948091 8.07708 1.13871 7.93663 1.27934L1.57263 7.64334C1.54934 7.66656 1.53087 7.69415 1.51827 7.72452C1.50567 7.7549 1.49918 7.78746 1.49918 7.82034C1.49918 7.85322 1.50567 7.88578 1.51827 7.91616C1.53087 7.94653 1.54934 7.97412 1.57263 7.99734L7.93663 14.3613C8.06911 14.5035 8.14123 14.6916 8.1378 14.8859C8.13437 15.0802 8.05566 15.2655 7.91825 15.403C7.78083 15.5404 7.59545 15.6191 7.40115 15.6225C7.20685 15.6259 7.0188 15.5538 6.87663 15.4213L0.512626 9.05934C0.350105 8.89684 0.221185 8.70391 0.133228 8.49158C0.0452709 8.27925 0 8.05167 0 7.82184C0 7.59201 0.0452709 7.36443 0.133228 7.1521C0.221185 6.93977 0.350105 6.74684 0.512626 6.58434L6.87563 0.21934C7.01625 0.0788894 7.20688 0 7.40563 0C7.60438 0 7.796 0.0788894 7.93663 0.21934Z" fill="black"/>
</svg>
