<svg width="66" height="26" viewBox="0 0 66 26" fill="none" xmlns="http://www.w3.org/2000/svg">
<path d="M29.5762 3.59766L25.5977 11.7012C25.5352 11.8262 25.4414 11.9258 25.3164 12C25.1953 12.0781 25.0605 12.1172 24.9121 12.1172C24.7676 12.1172 24.6328 12.0781 24.5078 12C24.3867 11.9258 24.293 11.8262 24.2266 11.7012L20.2539 3.59766H21.959L24.9121 9.65039L27.877 3.59766H29.5762ZM38.459 12H36.9355V9.9375H31.5801V12H30.0566V7.79883C30.0566 7.18555 30.1621 6.62109 30.373 6.10547C30.584 5.58984 30.877 5.14648 31.252 4.77539C31.627 4.4043 32.0703 4.11523 32.582 3.9082C33.0938 3.70117 33.6523 3.59766 34.2578 3.59766H37.6914C37.7969 3.59766 37.8965 3.61719 37.9902 3.65625C38.084 3.69531 38.166 3.75 38.2363 3.82031C38.3066 3.89062 38.3613 3.97266 38.4004 4.06641C38.4395 4.16016 38.459 4.25977 38.459 4.36523V12ZM31.5801 8.41406H36.9355V5.12109H34.2578C34.2109 5.12109 34.1113 5.12891 33.959 5.14453C33.8105 5.15625 33.6367 5.18945 33.4375 5.24414C33.2422 5.29883 33.0352 5.38281 32.8164 5.49609C32.5977 5.60938 32.3965 5.76562 32.2129 5.96484C32.0293 6.16406 31.877 6.41406 31.7559 6.71484C31.6387 7.01172 31.5801 7.37305 31.5801 7.79883V8.41406ZM48.4668 11.2324C48.4668 11.3418 48.4473 11.4434 48.4082 11.5371C48.3691 11.6309 48.3145 11.7129 48.2441 11.7832C48.1738 11.8496 48.0918 11.9023 47.998 11.9414C47.9043 11.9805 47.8047 12 47.6992 12H44.2656C43.9414 12 43.6133 11.9648 43.2812 11.8945C42.9492 11.8242 42.627 11.7168 42.3145 11.5723C42.0059 11.4238 41.7148 11.2363 41.4414 11.0098C41.168 10.7832 40.9277 10.5156 40.7207 10.207C40.5176 9.89453 40.3574 9.53906 40.2402 9.14062C40.123 8.73828 40.0645 8.29102 40.0645 7.79883V3.59766H41.5879V7.79883C41.5879 8.22852 41.6465 8.5918 41.7637 8.88867C41.8848 9.18555 42.0371 9.43359 42.2207 9.63281C42.4043 9.83203 42.6055 9.98828 42.8242 10.1016C43.043 10.2148 43.25 10.2988 43.4453 10.3535C43.6445 10.4082 43.8184 10.4434 43.9668 10.459C44.1191 10.4707 44.2188 10.4766 44.2656 10.4766H46.9434V3.59766H48.4668V11.2324ZM57.959 12H51.0098C50.9004 12 50.7988 11.9805 50.7051 11.9414C50.6113 11.9023 50.5293 11.8496 50.459 11.7832C50.3926 11.7129 50.3398 11.6309 50.3008 11.5371C50.2617 11.4434 50.2422 11.3418 50.2422 11.2324V3.59766H51.7656V10.4766H57.959V12ZM65.4766 5.12109H62.1191V12H60.5957V5.12109H57.2324V3.59766H65.4766V5.12109Z" fill="black"/>
<path d="M27.9792 15.03L25.3492 22H24.2992L21.6692 15.03H22.6392L24.8292 21.04L27.0192 15.03H27.9792ZM29.887 15.03V22H28.977V15.03H29.887ZM32.348 15.77V18.1H34.888V18.85H32.348V21.25H35.188V22H31.438V15.02H35.188V15.77H32.348ZM45.3249 15.03L43.3049 22H42.2849L40.6649 16.39L38.9849 22L37.9749 22.01L36.0249 15.03H36.9949L38.5149 20.94L40.1949 15.03H41.2149L42.8149 20.92L44.3449 15.03H45.3249Z" fill="black"/>
<path d="M8.51933 1.2693C8.60448 1.18394 8.70564 1.11621 8.817 1.07C8.92836 1.02379 9.04775 1 9.16832 1C9.28889 1 9.40828 1.02379 9.51964 1.07C9.63101 1.11621 9.73216 1.18394 9.81731 1.2693C12.0906 3.54992 14.6095 4.66823 17.4163 4.66823C17.6594 4.66823 17.8926 4.76481 18.0645 4.93671C18.2364 5.10862 18.333 5.34177 18.333 5.58488V11.0866C18.333 16.988 15.3245 20.9992 9.45615 22.9535C9.26812 23.0162 9.06486 23.0162 8.87683 22.9535C3.01027 20.9992 0 16.988 0 11.0866V5.58488C0 5.34177 0.0965754 5.10862 0.26848 4.93671C0.440385 4.76481 0.673538 4.66823 0.916649 4.66823C3.72159 4.66823 6.24055 3.54809 8.51933 1.2693Z" fill="url(#paint0_radial_228_942)"/>
<defs>
<radialGradient id="paint0_radial_228_942" cx="0" cy="0" r="1" gradientUnits="userSpaceOnUse" gradientTransform="translate(-7.20302 -11.3731) rotate(56.554) scale(51.083 43.8946)">
<stop offset="0.338" stop-color="#7B57E0"/>
<stop offset="0.529" stop-color="#5B25C0"/>
<stop offset="0.682" stop-color="#5B25C0"/>
<stop offset="0.861" stop-color="#421C83"/>
</radialGradient>
</defs>
</svg>
